<mxfile host="app.diagrams.net" modified="2021-08-27T11:44:16.065Z" agent="5.0 (Windows NT 10.0; Win64; x64) AppleWebKit/537.36 (KHTML, like Gecko) Chrome/92.0.4515.159 Safari/537.36 Edg/92.0.902.78" etag="bSAqHEN4lGJT_kM7ackT" version="14.9.8" type="github">
  <diagram id="R2lEEEUBdFMjLlhIrx00" name="Page-1">
    <mxGraphModel dx="1866" dy="1769" grid="1" gridSize="10" guides="1" tooltips="1" connect="1" arrows="1" fold="1" page="1" pageScale="1" pageWidth="850" pageHeight="1100" math="0" shadow="0" extFonts="Permanent Marker^https://fonts.googleapis.com/css?family=Permanent+Marker">
      <root>
        <mxCell id="0" />
        <mxCell id="1" parent="0" />
        <mxCell id="P4Pfxg6mVfLENpOahTxH-29" value="ADMIN" style="shape=table;startSize=30;container=1;collapsible=1;childLayout=tableLayout;fixedRows=1;rowLines=0;fontStyle=1;align=center;resizeLast=1;" parent="1" vertex="1">
          <mxGeometry x="-100" y="-1050" width="250" height="90" as="geometry" />
        </mxCell>
        <mxCell id="P4Pfxg6mVfLENpOahTxH-30" value="" style="shape=partialRectangle;collapsible=0;dropTarget=0;pointerEvents=0;fillColor=none;points=[[0,0.5],[1,0.5]];portConstraint=eastwest;top=0;left=0;right=0;bottom=1;" parent="P4Pfxg6mVfLENpOahTxH-29" vertex="1">
          <mxGeometry y="30" width="250" height="30" as="geometry" />
        </mxCell>
        <mxCell id="P4Pfxg6mVfLENpOahTxH-31" value="PK" style="shape=partialRectangle;overflow=hidden;connectable=0;fillColor=none;top=0;left=0;bottom=0;right=0;fontStyle=1;" parent="P4Pfxg6mVfLENpOahTxH-30" vertex="1">
          <mxGeometry width="30" height="30" as="geometry" />
        </mxCell>
        <mxCell id="P4Pfxg6mVfLENpOahTxH-32" value="Admin ID" style="shape=partialRectangle;overflow=hidden;connectable=0;fillColor=none;top=0;left=0;bottom=0;right=0;align=left;spacingLeft=6;fontStyle=5;" parent="P4Pfxg6mVfLENpOahTxH-30" vertex="1">
          <mxGeometry x="30" width="220" height="30" as="geometry" />
        </mxCell>
        <mxCell id="P4Pfxg6mVfLENpOahTxH-33" value="" style="shape=partialRectangle;collapsible=0;dropTarget=0;pointerEvents=0;fillColor=none;points=[[0,0.5],[1,0.5]];portConstraint=eastwest;top=0;left=0;right=0;bottom=1;" parent="P4Pfxg6mVfLENpOahTxH-29" vertex="1">
          <mxGeometry y="60" width="250" height="30" as="geometry" />
        </mxCell>
        <mxCell id="P4Pfxg6mVfLENpOahTxH-34" value="" style="shape=partialRectangle;overflow=hidden;connectable=0;fillColor=none;top=0;left=0;bottom=0;right=0;fontStyle=0;" parent="P4Pfxg6mVfLENpOahTxH-33" vertex="1">
          <mxGeometry width="30" height="30" as="geometry" />
        </mxCell>
        <mxCell id="P4Pfxg6mVfLENpOahTxH-35" value="Admin Name" style="shape=partialRectangle;overflow=hidden;connectable=0;fillColor=none;top=0;left=0;bottom=0;right=0;align=left;spacingLeft=6;fontStyle=0;" parent="P4Pfxg6mVfLENpOahTxH-33" vertex="1">
          <mxGeometry x="30" width="220" height="30" as="geometry" />
        </mxCell>
        <mxCell id="P4Pfxg6mVfLENpOahTxH-48" value="CUSTOMER" style="shape=table;startSize=30;container=1;collapsible=1;childLayout=tableLayout;fixedRows=1;rowLines=0;fontStyle=1;align=center;resizeLast=1;" parent="1" vertex="1">
          <mxGeometry x="-450" y="-600" width="250" height="360" as="geometry" />
        </mxCell>
        <mxCell id="P4Pfxg6mVfLENpOahTxH-49" value="" style="shape=partialRectangle;collapsible=0;dropTarget=0;pointerEvents=0;fillColor=none;points=[[0,0.5],[1,0.5]];portConstraint=eastwest;top=0;left=0;right=0;bottom=1;" parent="P4Pfxg6mVfLENpOahTxH-48" vertex="1">
          <mxGeometry y="30" width="250" height="30" as="geometry" />
        </mxCell>
        <mxCell id="P4Pfxg6mVfLENpOahTxH-50" value="PK" style="shape=partialRectangle;overflow=hidden;connectable=0;fillColor=none;top=0;left=0;bottom=0;right=0;fontStyle=1;" parent="P4Pfxg6mVfLENpOahTxH-49" vertex="1">
          <mxGeometry width="30" height="30" as="geometry" />
        </mxCell>
        <mxCell id="P4Pfxg6mVfLENpOahTxH-51" value="Customer ID" style="shape=partialRectangle;overflow=hidden;connectable=0;fillColor=none;top=0;left=0;bottom=0;right=0;align=left;spacingLeft=6;fontStyle=5;" parent="P4Pfxg6mVfLENpOahTxH-49" vertex="1">
          <mxGeometry x="30" width="220" height="30" as="geometry" />
        </mxCell>
        <mxCell id="P4Pfxg6mVfLENpOahTxH-52" value="" style="shape=partialRectangle;collapsible=0;dropTarget=0;pointerEvents=0;fillColor=none;points=[[0,0.5],[1,0.5]];portConstraint=eastwest;top=0;left=0;right=0;bottom=1;" parent="P4Pfxg6mVfLENpOahTxH-48" vertex="1">
          <mxGeometry y="60" width="250" height="30" as="geometry" />
        </mxCell>
        <mxCell id="P4Pfxg6mVfLENpOahTxH-53" value="" style="shape=partialRectangle;overflow=hidden;connectable=0;fillColor=none;top=0;left=0;bottom=0;right=0;fontStyle=0;" parent="P4Pfxg6mVfLENpOahTxH-52" vertex="1">
          <mxGeometry width="30" height="30" as="geometry" />
        </mxCell>
        <mxCell id="P4Pfxg6mVfLENpOahTxH-54" value="firstName" style="shape=partialRectangle;overflow=hidden;connectable=0;fillColor=none;top=0;left=0;bottom=0;right=0;align=left;spacingLeft=6;fontStyle=0;" parent="P4Pfxg6mVfLENpOahTxH-52" vertex="1">
          <mxGeometry x="30" width="220" height="30" as="geometry" />
        </mxCell>
        <mxCell id="qDM2UhSKlUh9qkAbrQEk-1" value="" style="shape=partialRectangle;collapsible=0;dropTarget=0;pointerEvents=0;fillColor=none;points=[[0,0.5],[1,0.5]];portConstraint=eastwest;top=0;left=0;right=0;bottom=1;" vertex="1" parent="P4Pfxg6mVfLENpOahTxH-48">
          <mxGeometry y="90" width="250" height="30" as="geometry" />
        </mxCell>
        <mxCell id="qDM2UhSKlUh9qkAbrQEk-2" value="" style="shape=partialRectangle;overflow=hidden;connectable=0;fillColor=none;top=0;left=0;bottom=0;right=0;fontStyle=0;" vertex="1" parent="qDM2UhSKlUh9qkAbrQEk-1">
          <mxGeometry width="30" height="30" as="geometry" />
        </mxCell>
        <mxCell id="qDM2UhSKlUh9qkAbrQEk-3" value="middleName" style="shape=partialRectangle;overflow=hidden;connectable=0;fillColor=none;top=0;left=0;bottom=0;right=0;align=left;spacingLeft=6;fontStyle=0;" vertex="1" parent="qDM2UhSKlUh9qkAbrQEk-1">
          <mxGeometry x="30" width="220" height="30" as="geometry" />
        </mxCell>
        <mxCell id="qDM2UhSKlUh9qkAbrQEk-4" value="" style="shape=partialRectangle;collapsible=0;dropTarget=0;pointerEvents=0;fillColor=none;points=[[0,0.5],[1,0.5]];portConstraint=eastwest;top=0;left=0;right=0;bottom=1;" vertex="1" parent="P4Pfxg6mVfLENpOahTxH-48">
          <mxGeometry y="120" width="250" height="30" as="geometry" />
        </mxCell>
        <mxCell id="qDM2UhSKlUh9qkAbrQEk-5" value="" style="shape=partialRectangle;overflow=hidden;connectable=0;fillColor=none;top=0;left=0;bottom=0;right=0;fontStyle=0;" vertex="1" parent="qDM2UhSKlUh9qkAbrQEk-4">
          <mxGeometry width="30" height="30" as="geometry" />
        </mxCell>
        <mxCell id="qDM2UhSKlUh9qkAbrQEk-6" value="lastName" style="shape=partialRectangle;overflow=hidden;connectable=0;fillColor=none;top=0;left=0;bottom=0;right=0;align=left;spacingLeft=6;fontStyle=0;" vertex="1" parent="qDM2UhSKlUh9qkAbrQEk-4">
          <mxGeometry x="30" width="220" height="30" as="geometry" />
        </mxCell>
        <mxCell id="qDM2UhSKlUh9qkAbrQEk-7" value="" style="shape=partialRectangle;collapsible=0;dropTarget=0;pointerEvents=0;fillColor=none;points=[[0,0.5],[1,0.5]];portConstraint=eastwest;top=0;left=0;right=0;bottom=1;" vertex="1" parent="P4Pfxg6mVfLENpOahTxH-48">
          <mxGeometry y="150" width="250" height="30" as="geometry" />
        </mxCell>
        <mxCell id="qDM2UhSKlUh9qkAbrQEk-8" value="" style="shape=partialRectangle;overflow=hidden;connectable=0;fillColor=none;top=0;left=0;bottom=0;right=0;fontStyle=0;" vertex="1" parent="qDM2UhSKlUh9qkAbrQEk-7">
          <mxGeometry width="30" height="30" as="geometry" />
        </mxCell>
        <mxCell id="qDM2UhSKlUh9qkAbrQEk-9" value="address" style="shape=partialRectangle;overflow=hidden;connectable=0;fillColor=none;top=0;left=0;bottom=0;right=0;align=left;spacingLeft=6;fontStyle=0;" vertex="1" parent="qDM2UhSKlUh9qkAbrQEk-7">
          <mxGeometry x="30" width="220" height="30" as="geometry" />
        </mxCell>
        <mxCell id="qDM2UhSKlUh9qkAbrQEk-35" value="" style="shape=partialRectangle;collapsible=0;dropTarget=0;pointerEvents=0;fillColor=none;points=[[0,0.5],[1,0.5]];portConstraint=eastwest;top=0;left=0;right=0;bottom=1;" vertex="1" parent="P4Pfxg6mVfLENpOahTxH-48">
          <mxGeometry y="180" width="250" height="30" as="geometry" />
        </mxCell>
        <mxCell id="qDM2UhSKlUh9qkAbrQEk-36" value="" style="shape=partialRectangle;overflow=hidden;connectable=0;fillColor=none;top=0;left=0;bottom=0;right=0;fontStyle=0;" vertex="1" parent="qDM2UhSKlUh9qkAbrQEk-35">
          <mxGeometry width="30" height="30" as="geometry" />
        </mxCell>
        <mxCell id="qDM2UhSKlUh9qkAbrQEk-37" value="city" style="shape=partialRectangle;overflow=hidden;connectable=0;fillColor=none;top=0;left=0;bottom=0;right=0;align=left;spacingLeft=6;fontStyle=0;" vertex="1" parent="qDM2UhSKlUh9qkAbrQEk-35">
          <mxGeometry x="30" width="220" height="30" as="geometry" />
        </mxCell>
        <mxCell id="qDM2UhSKlUh9qkAbrQEk-38" value="" style="shape=partialRectangle;collapsible=0;dropTarget=0;pointerEvents=0;fillColor=none;points=[[0,0.5],[1,0.5]];portConstraint=eastwest;top=0;left=0;right=0;bottom=1;" vertex="1" parent="P4Pfxg6mVfLENpOahTxH-48">
          <mxGeometry y="210" width="250" height="30" as="geometry" />
        </mxCell>
        <mxCell id="qDM2UhSKlUh9qkAbrQEk-39" value="" style="shape=partialRectangle;overflow=hidden;connectable=0;fillColor=none;top=0;left=0;bottom=0;right=0;fontStyle=0;" vertex="1" parent="qDM2UhSKlUh9qkAbrQEk-38">
          <mxGeometry width="30" height="30" as="geometry" />
        </mxCell>
        <mxCell id="qDM2UhSKlUh9qkAbrQEk-40" value="state" style="shape=partialRectangle;overflow=hidden;connectable=0;fillColor=none;top=0;left=0;bottom=0;right=0;align=left;spacingLeft=6;fontStyle=0;" vertex="1" parent="qDM2UhSKlUh9qkAbrQEk-38">
          <mxGeometry x="30" width="220" height="30" as="geometry" />
        </mxCell>
        <mxCell id="qDM2UhSKlUh9qkAbrQEk-41" value="" style="shape=partialRectangle;collapsible=0;dropTarget=0;pointerEvents=0;fillColor=none;points=[[0,0.5],[1,0.5]];portConstraint=eastwest;top=0;left=0;right=0;bottom=1;" vertex="1" parent="P4Pfxg6mVfLENpOahTxH-48">
          <mxGeometry y="240" width="250" height="30" as="geometry" />
        </mxCell>
        <mxCell id="qDM2UhSKlUh9qkAbrQEk-42" value="" style="shape=partialRectangle;overflow=hidden;connectable=0;fillColor=none;top=0;left=0;bottom=0;right=0;fontStyle=0;" vertex="1" parent="qDM2UhSKlUh9qkAbrQEk-41">
          <mxGeometry width="30" height="30" as="geometry" />
        </mxCell>
        <mxCell id="qDM2UhSKlUh9qkAbrQEk-43" value="country" style="shape=partialRectangle;overflow=hidden;connectable=0;fillColor=none;top=0;left=0;bottom=0;right=0;align=left;spacingLeft=6;fontStyle=0;" vertex="1" parent="qDM2UhSKlUh9qkAbrQEk-41">
          <mxGeometry x="30" width="220" height="30" as="geometry" />
        </mxCell>
        <mxCell id="qDM2UhSKlUh9qkAbrQEk-44" value="" style="shape=partialRectangle;collapsible=0;dropTarget=0;pointerEvents=0;fillColor=none;points=[[0,0.5],[1,0.5]];portConstraint=eastwest;top=0;left=0;right=0;bottom=1;" vertex="1" parent="P4Pfxg6mVfLENpOahTxH-48">
          <mxGeometry y="270" width="250" height="30" as="geometry" />
        </mxCell>
        <mxCell id="qDM2UhSKlUh9qkAbrQEk-45" value="" style="shape=partialRectangle;overflow=hidden;connectable=0;fillColor=none;top=0;left=0;bottom=0;right=0;fontStyle=0;" vertex="1" parent="qDM2UhSKlUh9qkAbrQEk-44">
          <mxGeometry width="30" height="30" as="geometry" />
        </mxCell>
        <mxCell id="qDM2UhSKlUh9qkAbrQEk-46" value="postalCode" style="shape=partialRectangle;overflow=hidden;connectable=0;fillColor=none;top=0;left=0;bottom=0;right=0;align=left;spacingLeft=6;fontStyle=0;" vertex="1" parent="qDM2UhSKlUh9qkAbrQEk-44">
          <mxGeometry x="30" width="220" height="30" as="geometry" />
        </mxCell>
        <mxCell id="qDM2UhSKlUh9qkAbrQEk-47" value="" style="shape=partialRectangle;collapsible=0;dropTarget=0;pointerEvents=0;fillColor=none;points=[[0,0.5],[1,0.5]];portConstraint=eastwest;top=0;left=0;right=0;bottom=1;" vertex="1" parent="P4Pfxg6mVfLENpOahTxH-48">
          <mxGeometry y="300" width="250" height="30" as="geometry" />
        </mxCell>
        <mxCell id="qDM2UhSKlUh9qkAbrQEk-48" value="" style="shape=partialRectangle;overflow=hidden;connectable=0;fillColor=none;top=0;left=0;bottom=0;right=0;fontStyle=0;" vertex="1" parent="qDM2UhSKlUh9qkAbrQEk-47">
          <mxGeometry width="30" height="30" as="geometry" />
        </mxCell>
        <mxCell id="qDM2UhSKlUh9qkAbrQEk-49" value="phoneNumber" style="shape=partialRectangle;overflow=hidden;connectable=0;fillColor=none;top=0;left=0;bottom=0;right=0;align=left;spacingLeft=6;fontStyle=0;" vertex="1" parent="qDM2UhSKlUh9qkAbrQEk-47">
          <mxGeometry x="30" width="220" height="30" as="geometry" />
        </mxCell>
        <mxCell id="qDM2UhSKlUh9qkAbrQEk-50" value="" style="shape=partialRectangle;collapsible=0;dropTarget=0;pointerEvents=0;fillColor=none;points=[[0,0.5],[1,0.5]];portConstraint=eastwest;top=0;left=0;right=0;bottom=1;" vertex="1" parent="P4Pfxg6mVfLENpOahTxH-48">
          <mxGeometry y="330" width="250" height="30" as="geometry" />
        </mxCell>
        <mxCell id="qDM2UhSKlUh9qkAbrQEk-51" value="" style="shape=partialRectangle;overflow=hidden;connectable=0;fillColor=none;top=0;left=0;bottom=0;right=0;fontStyle=0;" vertex="1" parent="qDM2UhSKlUh9qkAbrQEk-50">
          <mxGeometry width="30" height="30" as="geometry" />
        </mxCell>
        <mxCell id="qDM2UhSKlUh9qkAbrQEk-52" value="emailAddress" style="shape=partialRectangle;overflow=hidden;connectable=0;fillColor=none;top=0;left=0;bottom=0;right=0;align=left;spacingLeft=6;fontStyle=0;" vertex="1" parent="qDM2UhSKlUh9qkAbrQEk-50">
          <mxGeometry x="30" width="220" height="30" as="geometry" />
        </mxCell>
        <mxCell id="P4Pfxg6mVfLENpOahTxH-55" value="CONFIRMATION" style="shape=table;startSize=30;container=1;collapsible=1;childLayout=tableLayout;fixedRows=1;rowLines=0;fontStyle=1;align=center;resizeLast=1;" parent="1" vertex="1">
          <mxGeometry x="610" y="-640" width="250" height="150" as="geometry" />
        </mxCell>
        <mxCell id="P4Pfxg6mVfLENpOahTxH-56" value="" style="shape=partialRectangle;collapsible=0;dropTarget=0;pointerEvents=0;fillColor=none;points=[[0,0.5],[1,0.5]];portConstraint=eastwest;top=0;left=0;right=0;bottom=1;" parent="P4Pfxg6mVfLENpOahTxH-55" vertex="1">
          <mxGeometry y="30" width="250" height="30" as="geometry" />
        </mxCell>
        <mxCell id="P4Pfxg6mVfLENpOahTxH-57" value="PK" style="shape=partialRectangle;overflow=hidden;connectable=0;fillColor=none;top=0;left=0;bottom=0;right=0;fontStyle=1;" parent="P4Pfxg6mVfLENpOahTxH-56" vertex="1">
          <mxGeometry width="30" height="30" as="geometry" />
        </mxCell>
        <mxCell id="P4Pfxg6mVfLENpOahTxH-58" value="billID" style="shape=partialRectangle;overflow=hidden;connectable=0;fillColor=none;top=0;left=0;bottom=0;right=0;align=left;spacingLeft=6;fontStyle=5;" parent="P4Pfxg6mVfLENpOahTxH-56" vertex="1">
          <mxGeometry x="30" width="220" height="30" as="geometry" />
        </mxCell>
        <mxCell id="P4Pfxg6mVfLENpOahTxH-59" value="" style="shape=partialRectangle;collapsible=0;dropTarget=0;pointerEvents=0;fillColor=none;points=[[0,0.5],[1,0.5]];portConstraint=eastwest;top=0;left=0;right=0;bottom=1;" parent="P4Pfxg6mVfLENpOahTxH-55" vertex="1">
          <mxGeometry y="60" width="250" height="30" as="geometry" />
        </mxCell>
        <mxCell id="P4Pfxg6mVfLENpOahTxH-60" value="" style="shape=partialRectangle;overflow=hidden;connectable=0;fillColor=none;top=0;left=0;bottom=0;right=0;fontStyle=0;" parent="P4Pfxg6mVfLENpOahTxH-59" vertex="1">
          <mxGeometry width="30" height="30" as="geometry" />
        </mxCell>
        <mxCell id="P4Pfxg6mVfLENpOahTxH-61" value="bookingID" style="shape=partialRectangle;overflow=hidden;connectable=0;fillColor=none;top=0;left=0;bottom=0;right=0;align=left;spacingLeft=6;fontStyle=0;" parent="P4Pfxg6mVfLENpOahTxH-59" vertex="1">
          <mxGeometry x="30" width="220" height="30" as="geometry" />
        </mxCell>
        <mxCell id="P4Pfxg6mVfLENpOahTxH-62" value="" style="shape=partialRectangle;collapsible=0;dropTarget=0;pointerEvents=0;fillColor=none;points=[[0,0.5],[1,0.5]];portConstraint=eastwest;top=0;left=0;right=0;bottom=1;" parent="P4Pfxg6mVfLENpOahTxH-55" vertex="1">
          <mxGeometry y="90" width="250" height="30" as="geometry" />
        </mxCell>
        <mxCell id="P4Pfxg6mVfLENpOahTxH-63" value="" style="shape=partialRectangle;overflow=hidden;connectable=0;fillColor=none;top=0;left=0;bottom=0;right=0;fontStyle=0;" parent="P4Pfxg6mVfLENpOahTxH-62" vertex="1">
          <mxGeometry width="30" height="30" as="geometry" />
        </mxCell>
        <mxCell id="P4Pfxg6mVfLENpOahTxH-64" value="Description" style="shape=partialRectangle;overflow=hidden;connectable=0;fillColor=none;top=0;left=0;bottom=0;right=0;align=left;spacingLeft=6;fontStyle=0;" parent="P4Pfxg6mVfLENpOahTxH-62" vertex="1">
          <mxGeometry x="30" width="220" height="30" as="geometry" />
        </mxCell>
        <mxCell id="P4Pfxg6mVfLENpOahTxH-65" value="" style="shape=partialRectangle;collapsible=0;dropTarget=0;pointerEvents=0;fillColor=none;points=[[0,0.5],[1,0.5]];portConstraint=eastwest;top=0;left=0;right=0;bottom=1;" parent="P4Pfxg6mVfLENpOahTxH-55" vertex="1">
          <mxGeometry y="120" width="250" height="30" as="geometry" />
        </mxCell>
        <mxCell id="P4Pfxg6mVfLENpOahTxH-66" value="" style="shape=partialRectangle;overflow=hidden;connectable=0;fillColor=none;top=0;left=0;bottom=0;right=0;fontStyle=0;" parent="P4Pfxg6mVfLENpOahTxH-65" vertex="1">
          <mxGeometry width="30" height="30" as="geometry" />
        </mxCell>
        <mxCell id="P4Pfxg6mVfLENpOahTxH-67" value="amountPaid" style="shape=partialRectangle;overflow=hidden;connectable=0;fillColor=none;top=0;left=0;bottom=0;right=0;align=left;spacingLeft=6;fontStyle=0;" parent="P4Pfxg6mVfLENpOahTxH-65" vertex="1">
          <mxGeometry x="30" width="220" height="30" as="geometry" />
        </mxCell>
        <mxCell id="P4Pfxg6mVfLENpOahTxH-74" value="BOOKING" style="shape=table;startSize=30;container=1;collapsible=1;childLayout=tableLayout;fixedRows=1;rowLines=0;fontStyle=1;align=center;resizeLast=1;" parent="1" vertex="1">
          <mxGeometry x="130" y="-640" width="250" height="200" as="geometry" />
        </mxCell>
        <mxCell id="P4Pfxg6mVfLENpOahTxH-75" value="" style="shape=partialRectangle;collapsible=0;dropTarget=0;pointerEvents=0;fillColor=none;points=[[0,0.5],[1,0.5]];portConstraint=eastwest;top=0;left=0;right=0;bottom=1;" parent="P4Pfxg6mVfLENpOahTxH-74" vertex="1">
          <mxGeometry y="30" width="250" height="30" as="geometry" />
        </mxCell>
        <mxCell id="P4Pfxg6mVfLENpOahTxH-76" value="PK" style="shape=partialRectangle;overflow=hidden;connectable=0;fillColor=none;top=0;left=0;bottom=0;right=0;fontStyle=1;" parent="P4Pfxg6mVfLENpOahTxH-75" vertex="1">
          <mxGeometry width="30" height="30" as="geometry" />
        </mxCell>
        <mxCell id="P4Pfxg6mVfLENpOahTxH-77" value="bookingID" style="shape=partialRectangle;overflow=hidden;connectable=0;fillColor=none;top=0;left=0;bottom=0;right=0;align=left;spacingLeft=6;fontStyle=5;" parent="P4Pfxg6mVfLENpOahTxH-75" vertex="1">
          <mxGeometry x="30" width="220" height="30" as="geometry" />
        </mxCell>
        <mxCell id="P4Pfxg6mVfLENpOahTxH-78" value="" style="shape=partialRectangle;collapsible=0;dropTarget=0;pointerEvents=0;fillColor=none;points=[[0,0.5],[1,0.5]];portConstraint=eastwest;top=0;left=0;right=0;bottom=1;" parent="P4Pfxg6mVfLENpOahTxH-74" vertex="1">
          <mxGeometry y="60" width="250" height="30" as="geometry" />
        </mxCell>
        <mxCell id="P4Pfxg6mVfLENpOahTxH-79" value="" style="shape=partialRectangle;overflow=hidden;connectable=0;fillColor=none;top=0;left=0;bottom=0;right=0;fontStyle=0;" parent="P4Pfxg6mVfLENpOahTxH-78" vertex="1">
          <mxGeometry width="30" height="30" as="geometry" />
        </mxCell>
        <mxCell id="P4Pfxg6mVfLENpOahTxH-80" value="arrivalDate" style="shape=partialRectangle;overflow=hidden;connectable=0;fillColor=none;top=0;left=0;bottom=0;right=0;align=left;spacingLeft=6;fontStyle=0;" parent="P4Pfxg6mVfLENpOahTxH-78" vertex="1">
          <mxGeometry x="30" width="220" height="30" as="geometry" />
        </mxCell>
        <mxCell id="P4Pfxg6mVfLENpOahTxH-81" value="" style="shape=partialRectangle;collapsible=0;dropTarget=0;pointerEvents=0;fillColor=none;points=[[0,0.5],[1,0.5]];portConstraint=eastwest;top=0;left=0;right=0;bottom=1;" parent="P4Pfxg6mVfLENpOahTxH-74" vertex="1">
          <mxGeometry y="90" width="250" height="30" as="geometry" />
        </mxCell>
        <mxCell id="P4Pfxg6mVfLENpOahTxH-82" value="" style="shape=partialRectangle;overflow=hidden;connectable=0;fillColor=none;top=0;left=0;bottom=0;right=0;fontStyle=0;" parent="P4Pfxg6mVfLENpOahTxH-81" vertex="1">
          <mxGeometry width="30" height="30" as="geometry" />
        </mxCell>
        <mxCell id="P4Pfxg6mVfLENpOahTxH-83" value="departDate" style="shape=partialRectangle;overflow=hidden;connectable=0;fillColor=none;top=0;left=0;bottom=0;right=0;align=left;spacingLeft=6;fontStyle=0;" parent="P4Pfxg6mVfLENpOahTxH-81" vertex="1">
          <mxGeometry x="30" width="220" height="30" as="geometry" />
        </mxCell>
        <mxCell id="P4Pfxg6mVfLENpOahTxH-84" value="" style="shape=partialRectangle;collapsible=0;dropTarget=0;pointerEvents=0;fillColor=none;points=[[0,0.5],[1,0.5]];portConstraint=eastwest;top=0;left=0;right=0;bottom=1;" parent="P4Pfxg6mVfLENpOahTxH-74" vertex="1">
          <mxGeometry y="120" width="250" height="20" as="geometry" />
        </mxCell>
        <mxCell id="P4Pfxg6mVfLENpOahTxH-85" value="" style="shape=partialRectangle;overflow=hidden;connectable=0;fillColor=none;top=0;left=0;bottom=0;right=0;fontStyle=0;" parent="P4Pfxg6mVfLENpOahTxH-84" vertex="1">
          <mxGeometry width="30" height="20" as="geometry" />
        </mxCell>
        <mxCell id="P4Pfxg6mVfLENpOahTxH-86" value="numBeds" style="shape=partialRectangle;overflow=hidden;connectable=0;fillColor=none;top=0;left=0;bottom=0;right=0;align=left;spacingLeft=6;fontStyle=0;" parent="P4Pfxg6mVfLENpOahTxH-84" vertex="1">
          <mxGeometry x="30" width="220" height="20" as="geometry" />
        </mxCell>
        <mxCell id="P4Pfxg6mVfLENpOahTxH-87" value="" style="shape=partialRectangle;collapsible=0;dropTarget=0;pointerEvents=0;fillColor=none;points=[[0,0.5],[1,0.5]];portConstraint=eastwest;top=0;left=0;right=0;bottom=1;" parent="P4Pfxg6mVfLENpOahTxH-74" vertex="1">
          <mxGeometry y="140" width="250" height="30" as="geometry" />
        </mxCell>
        <mxCell id="P4Pfxg6mVfLENpOahTxH-88" value="" style="shape=partialRectangle;overflow=hidden;connectable=0;fillColor=none;top=0;left=0;bottom=0;right=0;fontStyle=0;" parent="P4Pfxg6mVfLENpOahTxH-87" vertex="1">
          <mxGeometry width="30" height="30" as="geometry" />
        </mxCell>
        <mxCell id="P4Pfxg6mVfLENpOahTxH-89" value="numOfAdults" style="shape=partialRectangle;overflow=hidden;connectable=0;fillColor=none;top=0;left=0;bottom=0;right=0;align=left;spacingLeft=6;fontStyle=0;" parent="P4Pfxg6mVfLENpOahTxH-87" vertex="1">
          <mxGeometry x="30" width="220" height="30" as="geometry" />
        </mxCell>
        <mxCell id="P4Pfxg6mVfLENpOahTxH-90" value="" style="shape=partialRectangle;collapsible=0;dropTarget=0;pointerEvents=0;fillColor=none;points=[[0,0.5],[1,0.5]];portConstraint=eastwest;top=0;left=0;right=0;bottom=0;" parent="P4Pfxg6mVfLENpOahTxH-74" vertex="1">
          <mxGeometry y="170" width="250" height="20" as="geometry" />
        </mxCell>
        <mxCell id="P4Pfxg6mVfLENpOahTxH-91" value="" style="shape=partialRectangle;overflow=hidden;connectable=0;fillColor=none;top=0;left=0;bottom=0;right=0;" parent="P4Pfxg6mVfLENpOahTxH-90" vertex="1">
          <mxGeometry width="30" height="20" as="geometry" />
        </mxCell>
        <mxCell id="P4Pfxg6mVfLENpOahTxH-92" value="numOfKids" style="shape=partialRectangle;overflow=hidden;connectable=0;fillColor=none;top=0;left=0;bottom=0;right=0;align=left;spacingLeft=6;" parent="P4Pfxg6mVfLENpOahTxH-90" vertex="1">
          <mxGeometry x="30" width="220" height="20" as="geometry" />
        </mxCell>
        <mxCell id="P4Pfxg6mVfLENpOahTxH-117" value="ROOM" style="shape=table;startSize=30;container=1;collapsible=1;childLayout=tableLayout;fixedRows=1;rowLines=0;fontStyle=1;align=center;resizeLast=1;" parent="1" vertex="1">
          <mxGeometry x="130" y="-870" width="250" height="115" as="geometry" />
        </mxCell>
        <mxCell id="P4Pfxg6mVfLENpOahTxH-118" value="" style="shape=partialRectangle;collapsible=0;dropTarget=0;pointerEvents=0;fillColor=none;points=[[0,0.5],[1,0.5]];portConstraint=eastwest;top=0;left=0;right=0;bottom=1;" parent="P4Pfxg6mVfLENpOahTxH-117" vertex="1">
          <mxGeometry y="30" width="250" height="30" as="geometry" />
        </mxCell>
        <mxCell id="P4Pfxg6mVfLENpOahTxH-119" value="PK" style="shape=partialRectangle;overflow=hidden;connectable=0;fillColor=none;top=0;left=0;bottom=0;right=0;fontStyle=1;" parent="P4Pfxg6mVfLENpOahTxH-118" vertex="1">
          <mxGeometry width="30" height="30" as="geometry" />
        </mxCell>
        <mxCell id="P4Pfxg6mVfLENpOahTxH-120" value="Room Number" style="shape=partialRectangle;overflow=hidden;connectable=0;fillColor=none;top=0;left=0;bottom=0;right=0;align=left;spacingLeft=6;fontStyle=5;" parent="P4Pfxg6mVfLENpOahTxH-118" vertex="1">
          <mxGeometry x="30" width="220" height="30" as="geometry" />
        </mxCell>
        <mxCell id="P4Pfxg6mVfLENpOahTxH-121" value="" style="shape=partialRectangle;collapsible=0;dropTarget=0;pointerEvents=0;fillColor=none;points=[[0,0.5],[1,0.5]];portConstraint=eastwest;top=0;left=0;right=0;bottom=1;" parent="P4Pfxg6mVfLENpOahTxH-117" vertex="1">
          <mxGeometry y="60" width="250" height="30" as="geometry" />
        </mxCell>
        <mxCell id="P4Pfxg6mVfLENpOahTxH-122" value="" style="shape=partialRectangle;overflow=hidden;connectable=0;fillColor=none;top=0;left=0;bottom=0;right=0;fontStyle=0;" parent="P4Pfxg6mVfLENpOahTxH-121" vertex="1">
          <mxGeometry width="30" height="30" as="geometry" />
        </mxCell>
        <mxCell id="P4Pfxg6mVfLENpOahTxH-123" value="numBeds" style="shape=partialRectangle;overflow=hidden;connectable=0;fillColor=none;top=0;left=0;bottom=0;right=0;align=left;spacingLeft=6;fontStyle=0;" parent="P4Pfxg6mVfLENpOahTxH-121" vertex="1">
          <mxGeometry x="30" width="220" height="30" as="geometry" />
        </mxCell>
        <mxCell id="P4Pfxg6mVfLENpOahTxH-124" value="" style="shape=partialRectangle;collapsible=0;dropTarget=0;pointerEvents=0;fillColor=none;points=[[0,0.5],[1,0.5]];portConstraint=eastwest;top=0;left=0;right=0;bottom=1;" parent="P4Pfxg6mVfLENpOahTxH-117" vertex="1">
          <mxGeometry y="90" width="250" height="25" as="geometry" />
        </mxCell>
        <mxCell id="P4Pfxg6mVfLENpOahTxH-125" value="" style="shape=partialRectangle;overflow=hidden;connectable=0;fillColor=none;top=0;left=0;bottom=0;right=0;fontStyle=0;" parent="P4Pfxg6mVfLENpOahTxH-124" vertex="1">
          <mxGeometry width="30" height="25" as="geometry" />
        </mxCell>
        <mxCell id="P4Pfxg6mVfLENpOahTxH-126" value="Is Reserved" style="shape=partialRectangle;overflow=hidden;connectable=0;fillColor=none;top=0;left=0;bottom=0;right=0;align=left;spacingLeft=6;fontStyle=0;" parent="P4Pfxg6mVfLENpOahTxH-124" vertex="1">
          <mxGeometry x="30" width="220" height="25" as="geometry" />
        </mxCell>
        <mxCell id="qDM2UhSKlUh9qkAbrQEk-10" value="SEASIDE CAMP" style="shape=table;startSize=30;container=1;collapsible=1;childLayout=tableLayout;fixedRows=1;rowLines=0;fontStyle=1;align=center;resizeLast=1;" vertex="1" parent="1">
          <mxGeometry x="-440" y="-870" width="250" height="150" as="geometry" />
        </mxCell>
        <mxCell id="qDM2UhSKlUh9qkAbrQEk-11" value="" style="shape=partialRectangle;collapsible=0;dropTarget=0;pointerEvents=0;fillColor=none;points=[[0,0.5],[1,0.5]];portConstraint=eastwest;top=0;left=0;right=0;bottom=1;" vertex="1" parent="qDM2UhSKlUh9qkAbrQEk-10">
          <mxGeometry y="30" width="250" height="30" as="geometry" />
        </mxCell>
        <mxCell id="qDM2UhSKlUh9qkAbrQEk-12" value="PK" style="shape=partialRectangle;overflow=hidden;connectable=0;fillColor=none;top=0;left=0;bottom=0;right=0;fontStyle=1;" vertex="1" parent="qDM2UhSKlUh9qkAbrQEk-11">
          <mxGeometry width="30" height="30" as="geometry" />
        </mxCell>
        <mxCell id="qDM2UhSKlUh9qkAbrQEk-13" value="name" style="shape=partialRectangle;overflow=hidden;connectable=0;fillColor=none;top=0;left=0;bottom=0;right=0;align=left;spacingLeft=6;fontStyle=5;" vertex="1" parent="qDM2UhSKlUh9qkAbrQEk-11">
          <mxGeometry x="30" width="220" height="30" as="geometry" />
        </mxCell>
        <mxCell id="qDM2UhSKlUh9qkAbrQEk-14" value="" style="shape=partialRectangle;collapsible=0;dropTarget=0;pointerEvents=0;fillColor=none;points=[[0,0.5],[1,0.5]];portConstraint=eastwest;top=0;left=0;right=0;bottom=1;" vertex="1" parent="qDM2UhSKlUh9qkAbrQEk-10">
          <mxGeometry y="60" width="250" height="30" as="geometry" />
        </mxCell>
        <mxCell id="qDM2UhSKlUh9qkAbrQEk-15" value="" style="shape=partialRectangle;overflow=hidden;connectable=0;fillColor=none;top=0;left=0;bottom=0;right=0;fontStyle=0;" vertex="1" parent="qDM2UhSKlUh9qkAbrQEk-14">
          <mxGeometry width="30" height="30" as="geometry" />
        </mxCell>
        <mxCell id="qDM2UhSKlUh9qkAbrQEk-16" value="phoneNumber" style="shape=partialRectangle;overflow=hidden;connectable=0;fillColor=none;top=0;left=0;bottom=0;right=0;align=left;spacingLeft=6;fontStyle=0;" vertex="1" parent="qDM2UhSKlUh9qkAbrQEk-14">
          <mxGeometry x="30" width="220" height="30" as="geometry" />
        </mxCell>
        <mxCell id="qDM2UhSKlUh9qkAbrQEk-17" value="" style="shape=partialRectangle;collapsible=0;dropTarget=0;pointerEvents=0;fillColor=none;points=[[0,0.5],[1,0.5]];portConstraint=eastwest;top=0;left=0;right=0;bottom=1;" vertex="1" parent="qDM2UhSKlUh9qkAbrQEk-10">
          <mxGeometry y="90" width="250" height="30" as="geometry" />
        </mxCell>
        <mxCell id="qDM2UhSKlUh9qkAbrQEk-18" value="" style="shape=partialRectangle;overflow=hidden;connectable=0;fillColor=none;top=0;left=0;bottom=0;right=0;fontStyle=0;" vertex="1" parent="qDM2UhSKlUh9qkAbrQEk-17">
          <mxGeometry width="30" height="30" as="geometry" />
        </mxCell>
        <mxCell id="qDM2UhSKlUh9qkAbrQEk-19" value="email" style="shape=partialRectangle;overflow=hidden;connectable=0;fillColor=none;top=0;left=0;bottom=0;right=0;align=left;spacingLeft=6;fontStyle=0;" vertex="1" parent="qDM2UhSKlUh9qkAbrQEk-17">
          <mxGeometry x="30" width="220" height="30" as="geometry" />
        </mxCell>
        <mxCell id="qDM2UhSKlUh9qkAbrQEk-20" value="" style="shape=partialRectangle;collapsible=0;dropTarget=0;pointerEvents=0;fillColor=none;points=[[0,0.5],[1,0.5]];portConstraint=eastwest;top=0;left=0;right=0;bottom=1;" vertex="1" parent="qDM2UhSKlUh9qkAbrQEk-10">
          <mxGeometry y="120" width="250" height="30" as="geometry" />
        </mxCell>
        <mxCell id="qDM2UhSKlUh9qkAbrQEk-21" value="" style="shape=partialRectangle;overflow=hidden;connectable=0;fillColor=none;top=0;left=0;bottom=0;right=0;fontStyle=0;" vertex="1" parent="qDM2UhSKlUh9qkAbrQEk-20">
          <mxGeometry width="30" height="30" as="geometry" />
        </mxCell>
        <mxCell id="qDM2UhSKlUh9qkAbrQEk-22" value="address" style="shape=partialRectangle;overflow=hidden;connectable=0;fillColor=none;top=0;left=0;bottom=0;right=0;align=left;spacingLeft=6;fontStyle=0;" vertex="1" parent="qDM2UhSKlUh9qkAbrQEk-20">
          <mxGeometry x="30" width="220" height="30" as="geometry" />
        </mxCell>
        <mxCell id="qDM2UhSKlUh9qkAbrQEk-55" value="" style="endArrow=none;html=1;startArrow=none;exitX=1;exitY=0.5;exitDx=0;exitDy=0;" edge="1" parent="1" source="qDM2UhSKlUh9qkAbrQEk-59">
          <mxGeometry width="50" height="50" relative="1" as="geometry">
            <mxPoint x="-190" y="-805" as="sourcePoint" />
            <mxPoint x="130" y="-800" as="targetPoint" />
          </mxGeometry>
        </mxCell>
        <mxCell id="qDM2UhSKlUh9qkAbrQEk-56" value="" style="endArrow=none;html=1;exitX=0.463;exitY=1.017;exitDx=0;exitDy=0;exitPerimeter=0;entryX=-0.014;entryY=0.069;entryDx=0;entryDy=0;entryPerimeter=0;" edge="1" parent="1" source="qDM2UhSKlUh9qkAbrQEk-20" target="P4Pfxg6mVfLENpOahTxH-74">
          <mxGeometry width="50" height="50" relative="1" as="geometry">
            <mxPoint x="-320" y="-630" as="sourcePoint" />
            <mxPoint x="-20" y="-630" as="targetPoint" />
            <Array as="points">
              <mxPoint x="-324" y="-630" />
            </Array>
          </mxGeometry>
        </mxCell>
        <mxCell id="qDM2UhSKlUh9qkAbrQEk-57" value="" style="endArrow=none;html=1;exitX=1;exitY=0.5;exitDx=0;exitDy=0;entryX=0;entryY=0.5;entryDx=0;entryDy=0;startArrow=none;" edge="1" parent="1" source="qDM2UhSKlUh9qkAbrQEk-77" target="P4Pfxg6mVfLENpOahTxH-87">
          <mxGeometry width="50" height="50" relative="1" as="geometry">
            <mxPoint x="-70" y="-510" as="sourcePoint" />
            <mxPoint x="-20" y="-560" as="targetPoint" />
          </mxGeometry>
        </mxCell>
        <mxCell id="qDM2UhSKlUh9qkAbrQEk-58" value="" style="endArrow=none;html=1;exitX=1;exitY=0.5;exitDx=0;exitDy=0;entryX=0;entryY=0.5;entryDx=0;entryDy=0;startArrow=none;" edge="1" parent="1" source="qDM2UhSKlUh9qkAbrQEk-83" target="P4Pfxg6mVfLENpOahTxH-59">
          <mxGeometry width="50" height="50" relative="1" as="geometry">
            <mxPoint x="150" y="-580" as="sourcePoint" />
            <mxPoint x="490" y="-570" as="targetPoint" />
          </mxGeometry>
        </mxCell>
        <mxCell id="qDM2UhSKlUh9qkAbrQEk-59" value="has" style="shape=rhombus;perimeter=rhombusPerimeter;whiteSpace=wrap;html=1;align=center;" vertex="1" parent="1">
          <mxGeometry x="-80" y="-830" width="90" height="60" as="geometry" />
        </mxCell>
        <mxCell id="qDM2UhSKlUh9qkAbrQEk-62" value="" style="endArrow=none;html=1;entryX=0;entryY=0.5;entryDx=0;entryDy=0;" edge="1" parent="1" target="qDM2UhSKlUh9qkAbrQEk-59">
          <mxGeometry width="50" height="50" relative="1" as="geometry">
            <mxPoint x="-190" y="-800" as="sourcePoint" />
            <mxPoint x="129.99999999999977" y="-804.9599999999999" as="targetPoint" />
          </mxGeometry>
        </mxCell>
        <mxCell id="qDM2UhSKlUh9qkAbrQEk-67" value="1" style="text;html=1;align=center;verticalAlign=middle;resizable=0;points=[];autosize=1;strokeColor=none;" vertex="1" parent="1">
          <mxGeometry x="-320" y="-710" width="20" height="20" as="geometry" />
        </mxCell>
        <mxCell id="qDM2UhSKlUh9qkAbrQEk-68" value="1" style="text;html=1;align=center;verticalAlign=middle;resizable=0;points=[];autosize=1;strokeColor=none;" vertex="1" parent="1">
          <mxGeometry x="-190" y="-830" width="20" height="20" as="geometry" />
        </mxCell>
        <mxCell id="qDM2UhSKlUh9qkAbrQEk-69" value="1..*" style="text;html=1;align=center;verticalAlign=middle;resizable=0;points=[];autosize=1;strokeColor=none;" vertex="1" parent="1">
          <mxGeometry x="105" y="-820" width="30" height="20" as="geometry" />
        </mxCell>
        <mxCell id="qDM2UhSKlUh9qkAbrQEk-70" value="0..*" style="text;html=1;align=center;verticalAlign=middle;resizable=0;points=[];autosize=1;strokeColor=none;" vertex="1" parent="1">
          <mxGeometry x="105" y="-650" width="30" height="20" as="geometry" />
        </mxCell>
        <mxCell id="qDM2UhSKlUh9qkAbrQEk-71" value="1" style="text;html=1;align=center;verticalAlign=middle;resizable=0;points=[];autosize=1;strokeColor=none;" vertex="1" parent="1">
          <mxGeometry x="-200" y="-510" width="20" height="20" as="geometry" />
        </mxCell>
        <mxCell id="qDM2UhSKlUh9qkAbrQEk-72" value="0..*" style="text;html=1;align=center;verticalAlign=middle;resizable=0;points=[];autosize=1;strokeColor=none;" vertex="1" parent="1">
          <mxGeometry x="105" y="-510" width="30" height="20" as="geometry" />
        </mxCell>
        <mxCell id="qDM2UhSKlUh9qkAbrQEk-73" value="" style="endArrow=none;html=1;rounded=0;exitX=0.5;exitY=1;exitDx=0;exitDy=0;startArrow=none;" edge="1" parent="1" source="qDM2UhSKlUh9qkAbrQEk-78">
          <mxGeometry relative="1" as="geometry">
            <mxPoint x="240" y="-750" as="sourcePoint" />
            <mxPoint x="235" y="-641" as="targetPoint" />
          </mxGeometry>
        </mxCell>
        <mxCell id="qDM2UhSKlUh9qkAbrQEk-74" value="1" style="text;html=1;align=center;verticalAlign=middle;resizable=0;points=[];autosize=1;strokeColor=none;" vertex="1" parent="1">
          <mxGeometry x="240" y="-750" width="20" height="20" as="geometry" />
        </mxCell>
        <mxCell id="qDM2UhSKlUh9qkAbrQEk-76" value="for" style="shape=rhombus;perimeter=rhombusPerimeter;whiteSpace=wrap;html=1;align=center;" vertex="1" parent="1">
          <mxGeometry x="-220" y="-660" width="120" height="60" as="geometry" />
        </mxCell>
        <mxCell id="qDM2UhSKlUh9qkAbrQEk-78" value="for" style="shape=rhombus;perimeter=rhombusPerimeter;whiteSpace=wrap;html=1;align=center;" vertex="1" parent="1">
          <mxGeometry x="210" y="-720" width="50" height="40" as="geometry" />
        </mxCell>
        <mxCell id="qDM2UhSKlUh9qkAbrQEk-79" value="" style="endArrow=none;html=1;rounded=0;" edge="1" parent="1" target="qDM2UhSKlUh9qkAbrQEk-78">
          <mxGeometry relative="1" as="geometry">
            <mxPoint x="236" y="-751" as="sourcePoint" />
            <mxPoint x="240" y="-641" as="targetPoint" />
          </mxGeometry>
        </mxCell>
        <mxCell id="qDM2UhSKlUh9qkAbrQEk-81" value="0..*" style="text;html=1;align=center;verticalAlign=middle;resizable=0;points=[];autosize=1;strokeColor=none;" vertex="1" parent="1">
          <mxGeometry x="245" y="-660" width="30" height="20" as="geometry" />
        </mxCell>
        <mxCell id="qDM2UhSKlUh9qkAbrQEk-77" value="for" style="shape=rhombus;perimeter=rhombusPerimeter;whiteSpace=wrap;html=1;align=center;" vertex="1" parent="1">
          <mxGeometry x="-110" y="-515" width="120" height="60" as="geometry" />
        </mxCell>
        <mxCell id="qDM2UhSKlUh9qkAbrQEk-82" value="" style="endArrow=none;html=1;entryX=0;entryY=0.5;entryDx=0;entryDy=0;" edge="1" parent="1" target="qDM2UhSKlUh9qkAbrQEk-77">
          <mxGeometry width="50" height="50" relative="1" as="geometry">
            <mxPoint x="-201" y="-485" as="sourcePoint" />
            <mxPoint x="129.99999999999977" y="-485" as="targetPoint" />
          </mxGeometry>
        </mxCell>
        <mxCell id="qDM2UhSKlUh9qkAbrQEk-83" value="provides" style="shape=rhombus;perimeter=rhombusPerimeter;whiteSpace=wrap;html=1;align=center;" vertex="1" parent="1">
          <mxGeometry x="425" y="-595" width="120" height="60" as="geometry" />
        </mxCell>
        <mxCell id="qDM2UhSKlUh9qkAbrQEk-84" value="" style="endArrow=none;html=1;exitX=1;exitY=0.5;exitDx=0;exitDy=0;entryX=0;entryY=0.5;entryDx=0;entryDy=0;" edge="1" parent="1" source="P4Pfxg6mVfLENpOahTxH-78" target="qDM2UhSKlUh9qkAbrQEk-83">
          <mxGeometry width="50" height="50" relative="1" as="geometry">
            <mxPoint x="380" y="-565" as="sourcePoint" />
            <mxPoint x="610" y="-565" as="targetPoint" />
          </mxGeometry>
        </mxCell>
        <mxCell id="qDM2UhSKlUh9qkAbrQEk-85" value="1" style="text;html=1;align=center;verticalAlign=middle;resizable=0;points=[];autosize=1;strokeColor=none;" vertex="1" parent="1">
          <mxGeometry x="390" y="-560" width="20" height="20" as="geometry" />
        </mxCell>
        <mxCell id="qDM2UhSKlUh9qkAbrQEk-86" value="1" style="text;html=1;align=center;verticalAlign=middle;resizable=0;points=[];autosize=1;strokeColor=none;" vertex="1" parent="1">
          <mxGeometry x="590" y="-560" width="20" height="20" as="geometry" />
        </mxCell>
      </root>
    </mxGraphModel>
  </diagram>
</mxfile>
